<mxfile host="app.diagrams.net" modified="2024-02-19T15:48:01.813Z" agent="Mozilla/5.0 (Windows NT 10.0; Win64; x64) AppleWebKit/537.36 (KHTML, like Gecko) Chrome/120.0.0.0 Safari/537.36 OPR/106.0.0.0" etag="mhEh-zdkC2_MBWfywHbO" version="23.1.5" type="github">
  <diagram id="C5RBs43oDa-KdzZeNtuy" name="Page-1">
    <mxGraphModel dx="740" dy="685" grid="1" gridSize="10" guides="1" tooltips="1" connect="1" arrows="1" fold="1" page="1" pageScale="1" pageWidth="827" pageHeight="1169" math="0" shadow="0">
      <root>
        <mxCell id="WIyWlLk6GJQsqaUBKTNV-0" />
        <mxCell id="WIyWlLk6GJQsqaUBKTNV-1" parent="WIyWlLk6GJQsqaUBKTNV-0" />
        <mxCell id="WIyWlLk6GJQsqaUBKTNV-6" value="DIRETOR_DE" style="rhombus;whiteSpace=wrap;html=1;shadow=0;fontFamily=Helvetica;fontSize=12;align=center;strokeWidth=1;spacing=6;spacingTop=-4;" parent="WIyWlLk6GJQsqaUBKTNV-1" vertex="1">
          <mxGeometry x="340" y="40" width="100" height="80" as="geometry" />
        </mxCell>
        <mxCell id="EHrSmvZBz3Q3CxZcsqxm-1" value="PROFESSOR" style="rounded=0;whiteSpace=wrap;html=1;" parent="WIyWlLk6GJQsqaUBKTNV-1" vertex="1">
          <mxGeometry x="70" y="50" width="120" height="60" as="geometry" />
        </mxCell>
        <mxCell id="EHrSmvZBz3Q3CxZcsqxm-4" value="1" style="text;html=1;align=center;verticalAlign=middle;resizable=0;points=[];autosize=1;strokeColor=none;fillColor=none;" parent="WIyWlLk6GJQsqaUBKTNV-1" vertex="1">
          <mxGeometry x="245" y="58" width="30" height="30" as="geometry" />
        </mxCell>
        <mxCell id="EHrSmvZBz3Q3CxZcsqxm-5" value="DEPARTAMENTO" style="rounded=0;whiteSpace=wrap;html=1;" parent="WIyWlLk6GJQsqaUBKTNV-1" vertex="1">
          <mxGeometry x="590" y="50" width="120" height="60" as="geometry" />
        </mxCell>
        <mxCell id="EHrSmvZBz3Q3CxZcsqxm-6" value="" style="endArrow=none;html=1;rounded=0;exitX=1;exitY=0.5;exitDx=0;exitDy=0;entryX=0;entryY=0.5;entryDx=0;entryDy=0;" parent="WIyWlLk6GJQsqaUBKTNV-1" source="EHrSmvZBz3Q3CxZcsqxm-1" target="WIyWlLk6GJQsqaUBKTNV-6" edge="1">
          <mxGeometry width="50" height="50" relative="1" as="geometry">
            <mxPoint x="360" y="280" as="sourcePoint" />
            <mxPoint x="410" y="230" as="targetPoint" />
          </mxGeometry>
        </mxCell>
        <mxCell id="EHrSmvZBz3Q3CxZcsqxm-9" value="" style="shape=partialRectangle;whiteSpace=wrap;html=1;left=0;right=0;fillColor=none;" parent="WIyWlLk6GJQsqaUBKTNV-1" vertex="1">
          <mxGeometry x="430" y="70" width="160" height="20" as="geometry" />
        </mxCell>
        <mxCell id="EHrSmvZBz3Q3CxZcsqxm-10" value="RESPONSAVEL_POR" style="rhombus;whiteSpace=wrap;html=1;" parent="WIyWlLk6GJQsqaUBKTNV-1" vertex="1">
          <mxGeometry x="565" y="220" width="170" height="80" as="geometry" />
        </mxCell>
        <mxCell id="EHrSmvZBz3Q3CxZcsqxm-11" value="" style="shape=partialRectangle;whiteSpace=wrap;html=1;left=0;right=0;fillColor=none;direction=south;" parent="WIyWlLk6GJQsqaUBKTNV-1" vertex="1">
          <mxGeometry x="630" y="110" width="40" height="120" as="geometry" />
        </mxCell>
        <mxCell id="EHrSmvZBz3Q3CxZcsqxm-12" value="CURSO" style="rounded=0;whiteSpace=wrap;html=1;" parent="WIyWlLk6GJQsqaUBKTNV-1" vertex="1">
          <mxGeometry x="590" y="380" width="120" height="60" as="geometry" />
        </mxCell>
        <mxCell id="EHrSmvZBz3Q3CxZcsqxm-13" value="" style="shape=partialRectangle;whiteSpace=wrap;html=1;left=0;right=0;fillColor=none;direction=south;" parent="WIyWlLk6GJQsqaUBKTNV-1" vertex="1">
          <mxGeometry x="630" y="290" width="40" height="90" as="geometry" />
        </mxCell>
        <mxCell id="EHrSmvZBz3Q3CxZcsqxm-15" value="M" style="text;html=1;align=center;verticalAlign=middle;whiteSpace=wrap;rounded=0;" parent="WIyWlLk6GJQsqaUBKTNV-1" vertex="1">
          <mxGeometry x="650" y="170" width="60" height="30" as="geometry" />
        </mxCell>
        <mxCell id="EHrSmvZBz3Q3CxZcsqxm-16" value="N" style="text;html=1;align=center;verticalAlign=middle;whiteSpace=wrap;rounded=0;" parent="WIyWlLk6GJQsqaUBKTNV-1" vertex="1">
          <mxGeometry x="650" y="330" width="60" height="30" as="geometry" />
        </mxCell>
        <mxCell id="EHrSmvZBz3Q3CxZcsqxm-17" value="1" style="text;html=1;align=center;verticalAlign=middle;whiteSpace=wrap;rounded=0;" parent="WIyWlLk6GJQsqaUBKTNV-1" vertex="1">
          <mxGeometry x="490" y="50" width="60" height="30" as="geometry" />
        </mxCell>
        <mxCell id="EHrSmvZBz3Q3CxZcsqxm-18" value="INSCRITO_EM" style="rhombus;whiteSpace=wrap;html=1;" parent="WIyWlLk6GJQsqaUBKTNV-1" vertex="1">
          <mxGeometry x="320" y="370" width="110" height="80" as="geometry" />
        </mxCell>
        <mxCell id="EHrSmvZBz3Q3CxZcsqxm-19" value="" style="endArrow=none;html=1;rounded=0;exitX=1;exitY=0.5;exitDx=0;exitDy=0;entryX=0;entryY=0.5;entryDx=0;entryDy=0;" parent="WIyWlLk6GJQsqaUBKTNV-1" source="EHrSmvZBz3Q3CxZcsqxm-18" target="EHrSmvZBz3Q3CxZcsqxm-12" edge="1">
          <mxGeometry width="50" height="50" relative="1" as="geometry">
            <mxPoint x="360" y="280" as="sourcePoint" />
            <mxPoint x="410" y="230" as="targetPoint" />
          </mxGeometry>
        </mxCell>
        <mxCell id="EHrSmvZBz3Q3CxZcsqxm-20" value="AnoInsc" style="ellipse;whiteSpace=wrap;html=1;" parent="WIyWlLk6GJQsqaUBKTNV-1" vertex="1">
          <mxGeometry x="245" y="292.5" width="90" height="70" as="geometry" />
        </mxCell>
        <mxCell id="EHrSmvZBz3Q3CxZcsqxm-21" value="AnoConcl?" style="ellipse;whiteSpace=wrap;html=1;" parent="WIyWlLk6GJQsqaUBKTNV-1" vertex="1">
          <mxGeometry x="410" y="290" width="90" height="75" as="geometry" />
        </mxCell>
        <mxCell id="EHrSmvZBz3Q3CxZcsqxm-22" value="" style="endArrow=none;html=1;rounded=0;exitX=0.5;exitY=1;exitDx=0;exitDy=0;" parent="WIyWlLk6GJQsqaUBKTNV-1" source="EHrSmvZBz3Q3CxZcsqxm-20" target="EHrSmvZBz3Q3CxZcsqxm-18" edge="1">
          <mxGeometry width="50" height="50" relative="1" as="geometry">
            <mxPoint x="360" y="280" as="sourcePoint" />
            <mxPoint x="410" y="230" as="targetPoint" />
          </mxGeometry>
        </mxCell>
        <mxCell id="EHrSmvZBz3Q3CxZcsqxm-23" value="" style="endArrow=none;html=1;rounded=0;exitX=1;exitY=0;exitDx=0;exitDy=0;entryX=0.5;entryY=1;entryDx=0;entryDy=0;" parent="WIyWlLk6GJQsqaUBKTNV-1" source="EHrSmvZBz3Q3CxZcsqxm-18" target="EHrSmvZBz3Q3CxZcsqxm-21" edge="1">
          <mxGeometry width="50" height="50" relative="1" as="geometry">
            <mxPoint x="360" y="280" as="sourcePoint" />
            <mxPoint x="410" y="230" as="targetPoint" />
          </mxGeometry>
        </mxCell>
        <mxCell id="EHrSmvZBz3Q3CxZcsqxm-24" value="TRABALHA_EM" style="rhombus;whiteSpace=wrap;html=1;" parent="WIyWlLk6GJQsqaUBKTNV-1" vertex="1">
          <mxGeometry x="310" y="180" width="150" height="80" as="geometry" />
        </mxCell>
        <mxCell id="EHrSmvZBz3Q3CxZcsqxm-28" value="" style="endArrow=none;html=1;rounded=0;entryX=0.867;entryY=1.017;entryDx=0;entryDy=0;exitX=0.12;exitY=0.363;exitDx=0;exitDy=0;exitPerimeter=0;entryPerimeter=0;" parent="WIyWlLk6GJQsqaUBKTNV-1" source="EHrSmvZBz3Q3CxZcsqxm-24" target="EHrSmvZBz3Q3CxZcsqxm-1" edge="1">
          <mxGeometry width="50" height="50" relative="1" as="geometry">
            <mxPoint x="360" y="280" as="sourcePoint" />
            <mxPoint x="410" y="230" as="targetPoint" />
          </mxGeometry>
        </mxCell>
        <mxCell id="EHrSmvZBz3Q3CxZcsqxm-29" value="" style="endArrow=none;html=1;rounded=0;entryX=1;entryY=0.75;entryDx=0;entryDy=0;" parent="WIyWlLk6GJQsqaUBKTNV-1" source="EHrSmvZBz3Q3CxZcsqxm-24" target="EHrSmvZBz3Q3CxZcsqxm-1" edge="1">
          <mxGeometry width="50" height="50" relative="1" as="geometry">
            <mxPoint x="360" y="280" as="sourcePoint" />
            <mxPoint x="410" y="230" as="targetPoint" />
          </mxGeometry>
        </mxCell>
        <mxCell id="EHrSmvZBz3Q3CxZcsqxm-30" value="" style="endArrow=none;html=1;rounded=0;entryX=1;entryY=0;entryDx=0;entryDy=0;exitX=0;exitY=0.75;exitDx=0;exitDy=0;" parent="WIyWlLk6GJQsqaUBKTNV-1" source="EHrSmvZBz3Q3CxZcsqxm-5" target="EHrSmvZBz3Q3CxZcsqxm-24" edge="1">
          <mxGeometry width="50" height="50" relative="1" as="geometry">
            <mxPoint x="564" y="220" as="sourcePoint" />
            <mxPoint x="410" y="122" as="targetPoint" />
          </mxGeometry>
        </mxCell>
        <mxCell id="EHrSmvZBz3Q3CxZcsqxm-31" value="" style="endArrow=none;html=1;rounded=0;entryX=0.167;entryY=1.033;entryDx=0;entryDy=0;entryPerimeter=0;exitX=0.893;exitY=0.4;exitDx=0;exitDy=0;exitPerimeter=0;" parent="WIyWlLk6GJQsqaUBKTNV-1" source="EHrSmvZBz3Q3CxZcsqxm-24" target="EHrSmvZBz3Q3CxZcsqxm-5" edge="1">
          <mxGeometry width="50" height="50" relative="1" as="geometry">
            <mxPoint x="448" y="211" as="sourcePoint" />
            <mxPoint x="410" y="230" as="targetPoint" />
          </mxGeometry>
        </mxCell>
        <mxCell id="EHrSmvZBz3Q3CxZcsqxm-32" value="N" style="text;html=1;align=center;verticalAlign=middle;resizable=0;points=[];autosize=1;strokeColor=none;fillColor=none;" parent="WIyWlLk6GJQsqaUBKTNV-1" vertex="1">
          <mxGeometry x="275" y="118" width="30" height="30" as="geometry" />
        </mxCell>
        <mxCell id="EHrSmvZBz3Q3CxZcsqxm-33" value="1" style="text;html=1;align=center;verticalAlign=middle;resizable=0;points=[];autosize=1;strokeColor=none;fillColor=none;" parent="WIyWlLk6GJQsqaUBKTNV-1" vertex="1">
          <mxGeometry x="465" y="128" width="30" height="30" as="geometry" />
        </mxCell>
        <mxCell id="EHrSmvZBz3Q3CxZcsqxm-34" value="N" style="text;html=1;align=center;verticalAlign=middle;resizable=0;points=[];autosize=1;strokeColor=none;fillColor=none;" parent="WIyWlLk6GJQsqaUBKTNV-1" vertex="1">
          <mxGeometry x="495" y="378" width="30" height="30" as="geometry" />
        </mxCell>
        <mxCell id="EHrSmvZBz3Q3CxZcsqxm-35" value="ALUNO" style="rounded=0;whiteSpace=wrap;html=1;" parent="WIyWlLk6GJQsqaUBKTNV-1" vertex="1">
          <mxGeometry x="50" y="380" width="120" height="60" as="geometry" />
        </mxCell>
        <mxCell id="EHrSmvZBz3Q3CxZcsqxm-36" value="" style="shape=partialRectangle;whiteSpace=wrap;html=1;left=0;right=0;fillColor=none;" parent="WIyWlLk6GJQsqaUBKTNV-1" vertex="1">
          <mxGeometry x="170" y="395" width="170" height="30" as="geometry" />
        </mxCell>
        <mxCell id="EHrSmvZBz3Q3CxZcsqxm-37" value="M" style="text;html=1;align=center;verticalAlign=middle;resizable=0;points=[];autosize=1;strokeColor=none;fillColor=none;" parent="WIyWlLk6GJQsqaUBKTNV-1" vertex="1">
          <mxGeometry x="215" y="368" width="30" height="30" as="geometry" />
        </mxCell>
      </root>
    </mxGraphModel>
  </diagram>
</mxfile>
